<?xml version="1.0" standalone="no"?>
<!DOCTYPE svg PUBLIC "-//W3C//DTD SVG 20010904//EN"
 "http://www.w3.org/TR/2001/REC-SVG-20010904/DTD/svg10.dtd">
<svg version="1.0" xmlns="http://www.w3.org/2000/svg"
 width="480.000000pt" height="283.000000pt" viewBox="0 0 480.000000 283.000000"
 preserveAspectRatio="xMidYMid meet">
<metadata>
Created by potrace 1.16, written by Peter Selinger 2001-2019
</metadata>
<g transform="translate(0.000000,283.000000) scale(0.100000,-0.100000)"
fill="#000000" stroke="none">
<path d="M0 1639 l0 -1192 98 7 c53 4 117 9 142 11 25 2 86 6 135 9 136 9 363
25 425 31 63 6 125 11 260 20 52 4 111 8 130 10 128 14 183 18 245 20 39 1
122 7 185 13 63 6 154 13 201 16 48 3 95 8 105 12 11 3 15 2 9 -3 -5 -4 -11
-15 -13 -25 -2 -11 23 1 79 39 65 43 88 53 107 48 22 -5 24 -4 13 9 -10 12 -5
33 33 116 25 56 46 103 46 104 0 5 -83 34 -161 56 -62 18 -98 38 -204 114
-141 99 -163 128 -186 235 -25 119 -8 210 42 226 24 8 25 25 1 18 -16 -4 -23
9 -44 74 -14 43 -31 112 -38 153 -6 41 -16 94 -21 117 -19 88 -1 202 57 363
28 79 41 103 87 163 37 48 22 48 -22 0 -18 -21 -28 -31 -22 -21 7 9 8 17 2 20
-13 4 -211 316 -211 331 0 7 9 31 20 55 l19 42 -759 0 -760 0 0 -1191z"/>
<path d="M1510 2785 c-12 -25 -20 -49 -18 -53 9 -22 202 -322 207 -322 3 0 15
12 25 27 23 31 24 25 -67 261 l-52 132 -37 0 c-33 0 -38 -4 -58 -45z"/>
<path d="M1620 2822 c0 -4 20 -57 44 -117 24 -61 54 -141 67 -180 13 -38 25
-72 26 -74 1 -2 33 25 71 60 225 207 623 330 962 298 331 -32 556 -129 762
-327 75 -72 57 -68 208 -42 59 11 230 8 315 -5 17 -3 3 5 -30 16 -113 40 -269
34 -410 -15 -12 -5 -10 -2 5 7 48 28 177 50 263 45 81 -5 269 -57 282 -78 3
-5 -10 -3 -29 5 -42 18 -68 20 -46 4 12 -9 11 -10 -5 -4 -104 34 -382 27 -495
-13 -8 -3 -19 -4 -23 -3 -5 1 -6 -3 -2 -9 4 -7 12 -7 26 0 14 8 44 8 101 0
154 -21 261 -72 365 -173 84 -81 171 -203 155 -219 -6 -6 -12 -6 -17 3 -5 8
-4 10 3 5 7 -4 12 -2 12 4 0 6 -11 15 -24 20 -13 5 -27 14 -31 20 -12 19 -175
122 -255 162 -76 37 -230 99 -230 92 0 -2 31 -19 68 -38 82 -41 193 -147 245
-233 48 -79 99 -242 101 -320 0 -33 4 -59 9 -56 4 2 7 -1 7 -6 0 -6 -6 -11
-12 -11 -7 0 -26 35 -42 78 -40 108 -89 204 -149 292 -51 77 -168 222 -174
216 -2 -1 3 -16 11 -32 8 -16 17 -59 21 -96 5 -49 11 -68 21 -68 28 0 115
-176 113 -228 0 -9 -8 8 -18 38 -21 66 -60 144 -68 136 -3 -3 4 -22 16 -42 12
-20 32 -73 45 -118 18 -61 25 -75 29 -56 4 25 4 25 6 -2 2 -52 -25 -30 -37 30
-7 31 -26 86 -44 122 -18 36 -34 69 -36 74 -3 5 0 6 7 2 6 -4 11 -3 11 1 0 10
-21 33 -29 33 -4 0 -6 -49 -6 -108 0 -81 4 -114 15 -128 14 -19 14 -19 -8 0
-22 19 -22 19 -23 0 0 -11 -3 -14 -6 -6 -3 7 0 19 7 26 15 19 2 26 -63 33
l-53 5 -11 92 c-6 50 -14 100 -18 111 -6 17 -5 18 4 3 6 -9 14 -38 17 -65 5
-34 14 -55 33 -71 19 -17 21 -21 6 -13 -18 8 -21 6 -23 -20 -2 -26 1 -29 29
-29 30 0 31 1 25 33 -3 17 -24 70 -47 116 -22 46 -38 85 -36 87 7 8 78 -145
90 -195 12 -53 26 -67 28 -28 1 21 1 21 8 -3 7 -24 7 -24 14 9 4 18 6 57 5 85
l-1 51 -7 -60 -7 -60 -1 51 c-3 71 -36 196 -69 257 -20 36 -46 64 -88 94 -60
42 -235 136 -242 129 -2 -2 3 -35 12 -72 9 -38 18 -107 20 -154 l4 -85 -8 72
c-11 110 -20 98 -14 -19 6 -112 16 -140 31 -87 7 22 11 27 11 14 1 -12 5 -25
10 -30 11 -13 51 -147 51 -172 0 -27 -50 -80 -84 -88 l-29 -6 7 58 c17 153 19
193 7 193 -7 0 -11 25 -11 73 0 39 -3 89 -7 110 l-6 39 -57 -120 c-76 -159
-279 -502 -297 -502 -3 0 3 12 13 28 69 103 186 311 252 444 57 116 82 157 96
157 14 1 17 6 12 24 -15 63 -27 129 -24 132 13 13 163 -60 263 -129 69 -47
101 -102 135 -226 l20 -75 -6 85 c-3 47 -12 98 -20 114 -55 113 63 3 177 -164
60 -88 99 -162 146 -279 l34 -86 -6 57 c-8 84 -51 213 -97 291 -52 90 -171
206 -254 249 -35 18 -64 39 -64 46 0 18 11 15 82 -18 34 -16 69 -30 77 -30 43
0 332 -171 344 -204 4 -9 11 -16 17 -16 17 0 -26 56 -109 143 -77 80 -168 142
-252 170 -57 20 -201 40 -222 31 -14 -5 -13 -10 10 -40 14 -19 23 -37 20 -40
-3 -4 -39 14 -79 39 -99 62 -286 151 -393 187 -75 25 -103 30 -179 29 -50 -1
-80 -4 -66 -6 140 -22 378 -88 403 -113 13 -12 -37 -186 -93 -329 -49 -124
-90 -203 -197 -373 l-55 -88 -42 0 c-35 0 -45 4 -56 24 -11 22 -9 36 14 110
24 77 96 235 80 176 -4 -14 -17 -45 -29 -70 -13 -25 -33 -78 -45 -117 -19 -63
-20 -75 -8 -92 13 -18 16 -11 41 82 15 56 32 122 38 146 5 23 12 41 14 39 3
-2 -9 -58 -26 -124 -47 -179 -46 -164 -13 -164 21 0 34 8 45 28 9 15 42 70 74
122 110 180 183 345 230 523 22 82 23 93 10 103 -25 18 -192 71 -284 90 -80
16 -89 16 -170 -1 -47 -10 -138 -34 -201 -53 -140 -41 -164 -47 -125 -28 36
18 21 21 -24 5 -20 -7 -28 -14 -21 -19 7 -4 -10 -16 -42 -30 -99 -42 -211
-101 -293 -156 -46 -30 -87 -54 -92 -54 -4 0 35 29 89 63 53 34 105 67 115 74
10 6 13 12 7 12 -6 1 -50 -23 -97 -53 -48 -30 -87 -53 -87 -50 0 9 157 106
224 138 114 55 140 65 251 101 106 35 161 46 95 19 l-35 -14 35 6 c19 4 44 10
55 15 l20 8 -20 1 c-24 2 51 29 80 28 16 0 15 -2 -5 -8 l-25 -8 25 0 c14 0 36
4 50 8 l25 8 -25 2 c-53 5 77 28 161 29 70 1 100 -4 170 -28 169 -58 362 -150
421 -199 57 -48 36 -15 -48 76 -47 51 -111 112 -142 135 -186 141 -513 230
-783 213 -215 -13 -401 -61 -564 -144 -74 -38 -108 -64 -190 -147 -109 -108
-131 -144 -188 -310 -30 -86 -31 -97 -31 -245 0 -140 3 -163 26 -235 53 -158
50 -154 83 -161 42 -9 92 -40 145 -89 29 -28 58 -45 82 -49 48 -9 96 -49 118
-99 l18 -40 -5 87 c-5 72 -3 86 9 86 8 0 20 -12 27 -26 16 -37 6 -42 -14 -7
-15 27 -16 26 -12 -47 4 -88 28 -149 81 -207 38 -43 45 -63 22 -63 -29 0 -105
110 -120 175 -15 63 -93 135 -146 135 -15 0 -41 16 -70 44 -47 46 -130 96
-161 96 -26 0 -76 -55 -81 -90 -8 -54 12 -163 40 -220 25 -49 42 -65 157 -147
103 -73 145 -97 200 -113 39 -12 81 -25 94 -31 13 -5 26 -8 29 -5 7 7 -50 94
-91 139 -19 20 -30 37 -23 36 13 0 117 -136 124 -162 5 -18 69 -57 96 -57 8 0
45 -14 83 -31 117 -53 125 -56 253 -107 134 -53 292 -106 351 -116 40 -7 45
-4 220 138 l73 60 -47 39 c-62 53 -115 58 -214 22 -39 -14 -73 -25 -77 -25
-13 0 -5 28 10 34 26 10 29 7 8 -9 -27 -20 -14 -18 43 6 26 12 71 25 98 29 44
7 46 8 14 9 -20 0 -56 -6 -79 -14 -24 -8 -45 -13 -47 -11 -2 2 19 12 47 21 78
26 119 17 189 -44 l58 -51 122 138 122 137 -59 7 c-80 9 -140 26 -179 50 l-33
19 -22 -46 c-24 -50 -48 -62 -91 -46 -31 12 -35 31 -9 53 35 30 46 30 18 0
-34 -36 -31 -43 16 -45 27 -2 33 1 31 18 -2 25 15 57 28 50 5 -4 9 -2 9 4 0
18 -18 21 -34 5 -9 -8 -16 -11 -16 -5 0 5 11 18 25 29 14 11 25 25 25 31 0 6
7 11 16 11 12 0 15 -7 11 -26 -3 -18 -1 -24 9 -20 7 3 38 -6 68 -20 34 -15 82
-27 124 -31 66 -5 71 -4 85 18 20 31 43 125 52 209 8 78 39 234 55 274 7 20 8
32 0 40 -5 5 -10 28 -10 51 0 55 -10 67 -51 63 -52 -5 -51 -38 0 -74 43 -31
48 -47 34 -115 -5 -25 -8 -29 -13 -15 -3 10 -11 -14 -20 -61 -7 -42 -15 -73
-17 -66 -2 6 -23 -9 -47 -34 -36 -38 -50 -47 -96 -54 -33 -5 -59 -5 -69 1 -12
8 -8 9 14 5 17 -3 24 -2 18 1 -7 3 -13 12 -13 20 0 8 -4 14 -9 14 -5 0 -17 3
-27 7 -12 5 -15 3 -9 -6 6 -10 3 -11 -14 -2 -22 12 -41 41 -41 63 0 7 8 -2 16
-19 9 -18 20 -33 25 -33 12 0 12 2 -7 38 -8 18 -13 44 -11 59 4 26 4 26 6 -4
1 -32 2 -33 45 -33 36 0 44 3 41 18 -1 9 0 11 2 5 3 -7 8 -13 13 -13 5 0 6 8
3 18 -6 14 -4 15 8 5 19 -15 38 0 40 32 1 16 2 16 6 3 2 -9 -1 -26 -6 -37 -7
-12 -7 -22 -2 -26 6 -3 13 11 16 32 10 55 16 65 11 17 -6 -60 -26 -97 -63
-114 -41 -19 -37 -34 9 -38 32 -3 40 3 91 58 52 58 67 91 67 146 0 15 6 24 15
24 10 0 15 10 15 33 0 26 -8 37 -39 60 -47 32 -80 34 -112 6 -21 -18 -21 -20
-4 -13 43 15 69 10 76 -16 4 -16 7 -19 8 -7 1 9 5 17 9 17 13 0 52 -45 52 -59
0 -7 -11 1 -25 16 -13 15 -25 23 -25 16 0 -6 5 -15 10 -18 6 -3 10 -10 10 -15
0 -5 -17 2 -37 16 -47 31 -52 37 -29 28 14 -5 17 -3 14 7 -3 8 -12 15 -21 17
-14 3 -17 -6 -19 -50 l-1 -53 -7 50 -7 50 -3 -45 -3 -45 -4 38 c-6 57 -29 45
-58 -29 -12 -32 -14 -33 -10 -9 3 17 15 42 25 57 31 42 24 45 -17 7 l-38 -34
30 33 c17 19 42 41 57 49 14 9 25 21 24 27 -2 6 -1 8 1 4 8 -14 43 -8 43 6 0
22 -20 30 -21 9 0 -10 -3 -13 -6 -5 -9 23 -28 12 -93 -56 -36 -38 -62 -64 -57
-58 11 15 9 28 -4 20 -7 -4 -7 2 1 17 18 35 23 38 16 9 -6 -20 4 -13 46 32 65
69 111 84 127 40 l9 -27 1 26 c1 30 17 39 66 39 36 0 45 -15 45 -77 0 -50 16
-47 34 5 30 83 30 85 15 80 -8 -3 -20 -27 -26 -54 l-13 -49 6 50 c6 49 16 65
43 65 17 0 13 -19 -29 -130 -17 -47 -40 -125 -50 -175 -22 -109 -36 -246 -22
-226 5 7 8 23 6 35 -4 19 -4 19 4 2 6 -14 11 -16 16 -8 4 7 4 17 0 24 -5 7 -3
8 6 3 10 -6 12 -4 7 8 -3 9 5 44 19 78 14 34 23 63 21 66 -3 2 -16 -10 -31
-27 -14 -18 -26 -25 -26 -17 0 8 9 22 20 32 11 10 17 22 14 26 -3 5 -2 9 3 9
13 0 30 -14 34 -29 3 -8 13 10 22 39 10 29 15 56 11 59 -3 3 -19 -10 -36 -29
l-30 -35 23 34 c12 18 30 36 40 38 10 3 25 16 34 29 22 34 49 32 42 -3 -14
-80 -71 -266 -97 -320 -37 -75 -105 -163 -125 -163 -8 0 -15 1 -15 3 0 1 7 24
15 51 8 27 15 59 14 70 0 12 -9 -10 -20 -49 -11 -38 -25 -75 -31 -82 -6 -7
-35 -14 -67 -15 l-56 -2 53 -3 c33 -3 52 -9 52 -17 0 -6 -46 -64 -101 -127
-56 -62 -108 -121 -116 -130 -12 -15 -3 -20 96 -55 93 -32 112 -42 121 -65 11
-25 13 -26 38 -14 15 7 86 16 157 20 72 4 144 8 160 10 43 5 168 15 255 21
151 9 603 43 640 49 14 2 28 4 33 4 4 1 7 456 7 1011 l0 1010 -1590 0 c-874 0
-1590 -4 -1590 -8z m1625 -103 c5 -5 -5 -4 -23 2 -17 6 -32 13 -32 16 0 7 43
-8 55 -18z m-710 -799 c-3 -5 -1 -10 6 -10 15 0 -157 -120 -218 -152 -37 -20
-43 -27 -43 -55 0 -22 5 -33 15 -33 31 0 2 -28 -35 -34 -25 -4 -55 -20 -85
-46 -25 -22 -53 -40 -61 -40 -14 0 -14 -2 0 -15 18 -19 26 -19 40 0 6 8 66 29
133 46 122 31 123 31 155 12 42 -24 51 -48 13 -39 -17 4 -24 3 -20 -4 3 -5 14
-10 23 -10 10 0 28 -7 40 -16 17 -12 22 -24 20 -57 l-1 -42 -4 36 c-5 43 -25
64 -70 73 -25 6 -34 3 -47 -16 -9 -12 -16 -35 -16 -51 0 -15 -4 -26 -9 -23 -5
4 -12 0 -14 -6 -3 -7 -6 -1 -6 14 -1 36 -19 80 -30 74 -8 -5 12 -127 25 -147
10 -16 22 0 18 24 -4 20 -4 20 5 2 4 -11 7 -23 5 -26 -6 -10 25 -19 31 -10 2
5 -2 14 -10 21 -8 7 -15 19 -15 28 0 9 7 6 21 -12 27 -34 83 -37 100 -4 10 19
12 19 20 5 11 -20 -9 -74 -37 -98 -12 -10 -47 -20 -90 -24 -70 -7 -72 -6 -107
25 -40 34 -47 50 -56 124 l-6 50 -35 -31 -34 -31 19 -41 c33 -74 128 -132 225
-139 49 -3 62 0 120 33 86 48 122 77 139 109 13 23 12 28 -3 44 -9 11 -39 31
-66 46 l-49 27 -4 -43 -4 -43 -1 48 c-2 46 -1 48 21 42 12 -4 37 -16 55 -26
19 -11 38 -17 43 -13 5 3 24 1 42 -5 17 -6 50 -12 71 -13 25 -2 41 -9 43 -18
3 -9 1 -11 -4 -4 -4 5 -24 11 -44 12 -19 1 -51 7 -69 12 -19 5 -35 8 -37 6 -4
-4 91 -66 119 -78 13 -5 22 2 37 26 33 52 28 63 -25 64 -26 1 -70 8 -98 17
-58 17 -148 65 -153 81 -2 6 21 32 51 58 51 44 58 46 129 52 l74 7 7 -49 c3
-27 16 -82 28 -122 21 -72 21 -75 4 -107 -10 -19 -32 -48 -48 -64 -36 -36 -30
-38 47 -11 46 16 61 17 72 8 12 -10 14 -8 11 7 -2 12 4 21 15 23 14 3 17 -4
18 -40 l1 -43 10 52 c8 45 13 53 40 62 17 6 52 11 78 11 44 0 48 -2 58 -32
l10 -33 1 33 c1 18 6 41 11 52 37 74 36 70 10 63 -33 -9 -24 27 23 90 24 32
56 82 71 112 26 52 46 70 46 43 0 -7 -9 -42 -20 -77 -21 -67 -56 -125 -70
-116 -5 3 -14 -4 -21 -16 -8 -16 -8 -23 0 -29 9 -5 8 -10 -4 -20 -8 -7 -15
-23 -15 -36 0 -12 -5 -26 -11 -30 -11 -6 -8 -53 7 -101 5 -17 2 -23 -9 -23
-10 0 -21 19 -32 55 l-16 55 -44 0 c-70 0 -93 -13 -100 -57 -18 -103 -37 -144
-91 -203 -98 -105 -245 -157 -418 -147 -101 5 -126 12 -126 34 0 11 5 13 18 8
9 -4 64 -10 122 -14 l105 -6 -90 -6 -90 -5 90 -1 c50 0 104 3 120 7 l30 8 -29
1 c-38 1 -31 7 19 14 28 5 34 4 20 -3 -19 -8 -19 -9 -1 -9 30 -1 137 50 185
88 45 36 101 113 101 140 0 9 -13 -7 -30 -35 -16 -29 -48 -68 -72 -89 -41 -36
-145 -92 -153 -83 -3 2 22 16 55 31 106 49 201 171 199 257 0 31 -1 32 -9 13
-10 -24 -26 -30 -32 -13 -2 7 -26 3 -62 -10 -90 -30 -110 -24 -64 22 22 22 22
23 3 27 -11 2 -34 14 -51 27 l-32 25 -6 -25 c-9 -37 -42 -68 -131 -121 -44
-26 -72 -45 -62 -41 9 3 25 9 35 12 14 6 15 4 5 -6 -9 -10 -38 -14 -90 -13
-75 0 -76 0 -23 -7 l55 -7 -47 -1 c-53 -2 -168 35 -148 48 9 5 5 10 -11 16
-13 4 -28 7 -34 5 -5 -1 -7 1 -3 5 5 4 -1 13 -12 21 -19 14 -60 94 -60 119 0
16 70 75 82 68 4 -3 8 -23 8 -45 0 -49 25 -113 41 -103 8 4 7 9 -2 15 -10 6
-11 9 -1 9 7 0 12 12 11 28 l-1 27 -7 -25 c-7 -24 -7 -24 -14 8 -4 19 -4 45
-1 59 4 16 2 28 -7 34 -11 7 -11 9 2 9 12 0 20 -18 30 -75 10 -57 17 -75 29
-75 16 0 15 6 0 79 -10 43 -14 85 -10 91 14 22 37 3 45 -37 l8 -38 10 38 c5
20 18 42 28 48 28 14 23 29 -9 29 -72 0 -242 -80 -242 -114 0 -6 -5 -4 -10 4
-5 8 -7 23 -4 33 3 11 0 17 -9 17 -9 0 -17 -14 -21 -36 -7 -37 -16 -44 -56
-46 -62 -3 -63 -2 -58 50 5 52 65 188 92 211 26 21 33 3 12 -32 -22 -37 -66
-163 -66 -186 0 -9 9 3 20 27 10 23 24 42 30 42 5 0 10 8 10 18 0 10 15 36 34
58 33 38 35 39 102 38 38 0 63 1 56 4 -6 2 -12 19 -12 38 0 24 -4 33 -12 28
-7 -5 -8 -3 -3 6 6 10 4 12 -8 7 -35 -13 -14 4 74 63 158 107 231 148 214 120z
m1169 -59 c-2 -3 -12 3 -22 13 -16 17 -16 18 5 5 12 -7 20 -15 17 -18z m-1981
-489 c6 -55 26 -119 27 -85 0 7 19 14 43 16 l42 4 -47 1 c-43 2 -48 4 -47 25
1 16 2 18 6 5 3 -13 14 -18 36 -18 43 0 113 -20 100 -28 -6 -4 5 -17 23 -29
36 -23 42 -20 20 9 -7 10 -16 14 -20 10 -4 -4 -6 -2 -4 4 4 13 -44 68 -97 112
-43 35 -66 43 -44 15 13 -16 12 -17 -3 -5 -14 12 -17 10 -21 -10 -2 -13 -3 -8
-1 9 2 23 -3 36 -14 43 -35 20 8 9 48 -12 49 -26 195 -177 218 -226 16 -32 16
-33 -13 -57 l-30 -23 43 -17 c28 -11 39 -21 31 -25 -8 -6 -5 -10 9 -14 11 -4
39 -32 63 -64 24 -31 50 -65 58 -74 8 -10 11 -18 8 -18 -4 0 -29 30 -57 68
-29 37 -58 71 -65 75 -8 4 -57 23 -110 42 -52 19 -106 42 -119 50 -34 23 -76
114 -88 192 -5 37 -14 76 -19 85 -13 25 -11 32 4 16 8 -7 17 -42 20 -76z"/>
<path d="M2394 1834 c-128 -83 -144 -94 -128 -94 8 0 248 151 262 165 3 3 1 5
-5 5 -5 0 -63 -34 -129 -76z"/>
<path d="M3253 1671 c-17 -36 -48 -85 -68 -109 -20 -23 -35 -48 -32 -55 2 -7
10 0 17 15 7 15 21 30 30 33 25 8 54 54 74 118 9 32 16 60 14 61 -2 2 -17 -27
-35 -63z"/>
<path d="M2078 1668 c-34 -53 -71 -146 -75 -188 -3 -31 -2 -41 5 -31 9 12 11
12 14 0 3 -8 3 -3 1 11 -4 28 38 160 63 198 8 13 14 26 11 28 -2 3 -11 -6 -19
-18z"/>
<path d="M2669 1661 c-14 -3 -49 -24 -77 -46 -60 -45 -59 -46 33 -94 58 -29
164 -54 183 -42 6 4 2 34 -9 76 -10 39 -18 80 -18 93 -1 19 -6 22 -43 21 -24
-1 -55 -4 -69 -8z"/>
<path d="M2171 1637 c-28 -14 -79 -77 -62 -77 6 0 29 16 51 36 21 19 52 39 67
44 l28 8 -30 1 c-16 0 -41 -5 -54 -12z"/>
<path d="M2280 1570 c-90 -24 -107 -32 -122 -56 -28 -45 -21 -48 22 -11 69 59
196 88 275 62 11 -3 4 3 -15 14 -42 24 -31 25 -160 -9z"/>
<path d="M2060 1490 c-25 -49 -25 -59 0 -53 22 6 34 23 44 66 10 43 -20 34
-44 -13z"/>
<path d="M2272 1440 c0 -14 2 -19 5 -12 2 6 2 18 0 25 -3 6 -5 1 -5 -13z"/>
<path d="M2504 1385 c-4 -17 -12 -19 -50 -17 -24 2 -44 0 -44 -5 0 -5 -22 -9
-48 -9 -27 0 -57 -4 -67 -8 -17 -6 -16 -8 6 -32 23 -24 28 -25 89 -19 38 4 73
14 84 23 23 21 49 72 41 80 -3 3 -8 -3 -11 -13z"/>
<path d="M3141 1340 c0 -8 4 -22 9 -30 12 -18 12 -2 0 25 -6 13 -9 15 -9 5z"/>
<path d="M2931 1274 c0 -11 3 -14 6 -6 3 7 2 16 -1 19 -3 4 -6 -2 -5 -13z"/>
<path d="M2305 1245 c17 -8 37 -14 45 -14 8 0 -1 7 -20 14 -46 18 -64 17 -25
0z"/>
<path d="M2349 1017 c5 -5 19 -7 32 -5 20 3 19 5 -9 9 -20 3 -29 2 -23 -4z"/>
<path d="M1797 1293 c-21 -2 -40 -10 -43 -18 -8 -20 41 -98 73 -117 34 -20
161 -68 177 -67 6 0 -4 6 -23 13 -45 16 -48 29 -15 59 25 24 26 25 9 51 -10
14 -22 26 -27 26 -6 0 -4 -8 3 -17 8 -10 -3 -3 -24 15 -21 18 -53 36 -70 39
-32 7 -32 7 -7 14 28 8 12 8 -53 2z m81 -137 c22 -8 43 -12 46 -9 3 4 6 1 6
-6 0 -13 -20 -9 -75 14 -41 18 -27 18 23 1z"/>
<path d="M2565 2800 c-360 -27 -711 -214 -859 -458 -41 -68 -68 -139 -96 -257
-22 -89 -25 -141 -10 -212 5 -26 17 -88 26 -138 17 -96 50 -195 64 -195 18 0
20 20 5 49 -8 16 -27 76 -41 132 -24 92 -26 115 -22 228 5 134 29 224 96 374
32 70 143 196 220 249 114 78 309 153 485 185 142 26 383 23 517 -6 248 -53
401 -126 541 -258 94 -90 145 -115 64 -32 -238 243 -603 368 -990 339z"/>
<path d="M2873 2543 c9 -2 23 -2 30 0 6 3 -1 5 -18 5 -16 0 -22 -2 -12 -5z"/>
<path d="M2738 2513 c6 -2 18 -2 25 0 6 3 1 5 -13 5 -14 0 -19 -2 -12 -5z"/>
<path d="M2580 2470 c-20 -6 -21 -8 -5 -8 11 0 29 3 40 8 25 11 -1 11 -35 0z"/>
<path d="M2425 2414 c-16 -8 -56 -25 -89 -39 -32 -14 -56 -28 -54 -31 3 -2 38
11 79 29 41 18 85 38 99 45 14 6 18 11 10 11 -8 0 -28 -7 -45 -15z"/>
<path d="M3407 2040 c-7 -32 -27 -202 -27 -223 0 -19 32 -12 54 12 13 14 13
24 -5 86 -11 39 -18 77 -17 85 2 8 11 -20 21 -63 11 -42 23 -75 28 -71 5 3 9
13 9 22 0 20 -36 137 -49 160 -8 14 -10 13 -14 -8z"/>
<path d="M3748 1612 c-9 -15 -32 -73 -51 -128 -37 -108 -60 -159 -85 -187 -9
-10 -23 -48 -33 -85 l-17 -67 37 43 c75 86 132 225 178 430 7 31 -9 28 -29 -6z"/>
<path d="M3395 1480 c-11 -5 -37 -9 -58 -9 l-37 -1 17 -26 c14 -23 22 -25 56
-21 21 3 45 14 52 24 24 31 8 49 -30 33z"/>
<path d="M3653 1422 c-12 -31 -21 -58 -19 -59 5 -6 47 98 44 107 -2 5 -13 -17
-25 -48z"/>
<path d="M2125 1225 c10 -45 87 -156 99 -144 3 3 -10 24 -29 47 -20 22 -45 60
-56 84 -16 34 -19 37 -14 13z"/>
<path d="M3212 1200 c-6 -11 -8 -21 -3 -25 5 -3 13 4 16 16 9 28 2 33 -13 9z"/>
<path d="M3250 1175 c0 -11 82 -45 122 -50 42 -5 42 -5 -10 10 -30 8 -63 22
-75 30 -21 15 -37 19 -37 10z"/>
<path d="M3186 1135 c-9 -26 -7 -32 5 -12 6 10 9 21 6 23 -2 3 -7 -2 -11 -11z"/>
<path d="M2166 779 l-47 -101 41 -54 c22 -30 73 -86 113 -125 45 -45 57 -60
31 -41 -42 32 -100 92 -146 152 -15 19 -29 32 -33 29 -8 -9 105 -139 163 -186
29 -24 48 -43 42 -43 -17 0 -173 155 -200 199 -16 26 -30 39 -40 35 -8 -3 -81
-49 -162 -102 -141 -94 -146 -98 -147 -132 -1 -33 2 -37 66 -70 76 -39 96 -64
141 -173 28 -67 56 -171 33 -122 -8 16 -10 17 -10 3 -2 -51 -35 -48 615 -48
385 0 604 4 604 10 0 5 14 17 31 25 17 9 29 19 26 21 -3 3 -19 -2 -36 -11 -63
-32 -29 -5 52 41 94 54 152 96 184 133 22 24 23 34 21 161 l-2 135 -6 -135 -6
-135 -2 111 c-3 150 6 234 26 234 12 0 13 -12 8 -67 -8 -92 -9 -333 -1 -358 6
-16 5 -17 -4 -5 -9 13 -11 13 -11 -2 0 -9 5 -20 10 -23 6 -3 10 -17 10 -30 0
-19 10 -30 40 -45 22 -11 40 -17 40 -12 0 5 11 14 25 20 15 7 32 27 40 45 8
17 15 28 15 22 3 -19 39 70 39 95 0 16 -6 8 -15 -24 -9 -26 -17 -46 -20 -43
-2 2 0 17 6 33 6 15 8 40 5 54 -4 19 -3 21 5 10 17 -25 12 11 -6 40 l-15 25 6
-25 c5 -23 4 -23 -11 4 -26 47 -46 98 -35 91 14 -8 14 5 1 25 -9 13 -10 13
-10 0 -1 -8 -12 10 -26 40 -79 178 -119 258 -126 254 -4 -3 -5 2 -2 10 3 9 4
16 2 16 -2 0 -51 17 -109 38 l-105 38 -46 -40 -45 -41 -7 -85 c-3 -47 -12
-121 -18 -165 -9 -64 -13 -74 -18 -50 -6 28 -7 26 -14 -18 -4 -27 -10 -47 -12
-44 -2 2 2 44 10 93 8 49 18 123 22 164 8 69 9 72 15 35 6 -39 6 -39 8 13 l1
53 -57 -49 c-85 -73 -112 -84 -170 -72 -103 23 -363 119 -580 214 -85 38 -103
42 -103 27 0 -6 8 -9 18 -9 9 1 48 -13 85 -30 38 -18 72 -32 77 -32 5 0 12 -4
15 -10 8 -12 -58 11 -123 44 -29 15 -52 23 -52 20 0 -14 134 -155 178 -188 70
-51 186 -111 277 -142 44 -15 84 -31 89 -35 5 -4 2 -36 -8 -73 -22 -91 -22
-96 15 -96 36 0 89 -28 89 -47 0 -17 -22 -16 -46 2 -27 20 -80 19 -88 -2 -9
-22 -2 -27 74 -51 108 -34 107 -34 140 4 61 70 63 77 47 134 -8 28 -11 53 -6
56 5 3 9 15 9 26 0 28 5 21 14 -17 5 -22 4 -26 -4 -15 -8 13 -10 12 -10 -3 0
-10 5 -38 11 -63 11 -41 10 -47 -17 -85 -58 -84 -63 -85 -197 -42 -55 18 -90
23 -116 19 -27 -4 -55 1 -100 19 -70 27 -187 90 -197 106 -18 30 38 16 86 -21
21 -17 21 -19 5 -14 -51 15 23 -28 98 -57 104 -40 109 -32 6 10 -44 18 -79 35
-76 37 2 2 42 -12 90 -31 104 -42 124 -44 133 -10 5 21 12 25 43 25 21 0 46
-7 57 -15 29 -22 43 -17 15 5 -14 12 -38 20 -62 20 -46 0 -48 8 -24 101 9 33
13 64 10 69 -3 4 -36 18 -73 31 -99 33 -222 93 -288 142 -57 42 -155 146 -203
215 -12 17 -26 32 -30 32 -5 0 -29 -45 -55 -101z m320 -75 c33 -28 85 -62 115
-76 68 -32 238 -87 294 -95 41 -5 42 -5 48 27 5 24 11 31 23 26 9 -3 40 7 72
25 30 16 50 23 43 15 -8 -9 -18 -16 -24 -16 -6 0 -18 -7 -28 -16 -9 -8 -30
-16 -45 -18 -23 -3 -30 -9 -32 -31 -3 -27 -5 -27 -50 -22 -62 7 -230 61 -317
102 -43 20 -93 54 -130 89 -71 68 -55 63 31 -10z m18 47 c4 -5 -3 -7 -14 -4
-23 6 -26 13 -6 13 8 0 17 -4 20 -9z m194 -76 c89 -35 178 -67 197 -71 19 -3
38 -10 41 -15 3 -5 3 -9 1 -9 -24 0 -434 159 -412 160 6 0 83 -29 173 -65z
m799 3 c-3 -8 -6 -5 -6 6 -1 11 2 17 5 13 3 -3 4 -12 1 -19z m-463 -123 c-16
-24 -16 -34 -6 -82 11 -53 10 -57 -13 -85 -14 -16 -25 -35 -25 -41 0 -7 9 -1
20 13 11 14 20 20 20 14 0 -6 -6 -17 -14 -23 -8 -7 -17 -28 -21 -47 -7 -39
-32 -42 -28 -3 5 46 13 64 38 92 23 24 25 31 16 65 -15 52 -14 84 5 110 22 32
30 20 8 -13z"/>
<path d="M2981 328 c0 -9 -4 -25 -7 -35 -5 -17 -5 -17 6 0 6 10 9 25 7 35 -4
15 -5 15 -6 0z"/>
<path d="M4566 779 c-190 -16 -273 -22 -466 -34 -47 -3 -103 -8 -125 -10 -74
-7 -189 -16 -308 -24 -65 -4 -123 -13 -129 -19 -9 -9 -2 -33 29 -99 23 -49 48
-106 57 -128 14 -33 16 -35 11 -10 -4 23 0 19 20 -20 82 -166 92 -203 71 -262
-14 -40 -14 -43 17 -107 l32 -65 513 -1 512 0 0 399 c0 375 -1 400 -17 398
-10 -1 -108 -9 -217 -18z m-957 -234 c0 -5 -15 19 -34 55 -19 36 -34 70 -34
75 0 6 15 -19 34 -55 19 -36 34 -69 34 -75z m21 -50 c0 -5 -5 -3 -10 5 -5 8
-10 20 -10 25 0 6 5 3 10 -5 5 -8 10 -19 10 -25z"/>
<path d="M3146 551 c-4 -46 -5 -86 -2 -88 6 -6 19 143 14 159 -3 7 -8 -25 -12
-71z"/>
<path d="M1795 572 c-27 -1 -104 -7 -170 -13 -66 -6 -151 -13 -190 -14 -38 -1
-101 -5 -140 -9 -149 -15 -134 -14 -385 -32 -41 -3 -91 -7 -110 -9 -19 -2 -75
-6 -125 -10 -49 -3 -146 -10 -215 -15 -69 -5 -163 -12 -210 -15 -47 -4 -96 -8
-110 -10 -14 -2 -51 -4 -82 -4 l-58 -1 0 -220 0 -220 733 0 733 0 17 38 c9 20
25 60 37 87 42 98 113 234 131 251 14 13 31 15 69 12 l50 -5 0 38 c0 22 4 39
9 39 20 0 129 82 134 100 5 18 1 20 -31 18 -21 -2 -59 -4 -87 -6z"/>
<path d="M3513 545 c0 -22 2 -30 4 -17 2 12 2 30 0 40 -3 9 -5 -1 -4 -23z"/>
<path d="M3661 380 c0 -14 28 -72 29 -59 0 4 -7 22 -15 40 -8 19 -14 27 -14
19z"/>
<path d="M1653 369 c-19 -25 -173 -348 -173 -365 0 -1 118 -3 263 -4 l264 -1
-2 53 c-3 68 -55 194 -98 236 -65 63 -226 114 -254 81z m162 -35 c77 -39 126
-97 160 -189 15 -42 25 -78 23 -80 -2 -3 -12 19 -23 48 -27 76 -60 139 -87
164 -31 29 -147 83 -179 83 -36 0 -49 -18 -115 -153 -31 -64 -59 -115 -61
-113 -4 4 88 197 117 245 20 31 24 33 64 29 24 -3 69 -18 101 -34z m-296 -293
c-6 -18 -13 -30 -15 -28 -2 2 1 18 7 36 6 18 13 30 15 28 2 -2 -1 -18 -7 -36z"/>
<path d="M2440 345 c0 -6 56 -35 67 -35 4 0 -7 9 -25 20 -33 20 -42 24 -42 15z"/>
<path d="M3501 219 c-1 -16 -113 -100 -179 -133 -19 -10 -31 -20 -29 -23 8 -7
94 41 155 87 29 22 52 36 52 32 0 -9 -136 -100 -207 -139 -60 -32 -66 -43 -23
-43 17 0 30 4 30 8 0 4 45 37 100 72 85 55 101 70 106 97 3 18 4 38 1 45 -4 9
-6 8 -6 -3z"/>
<path d="M3401 69 c-50 -33 -91 -63 -91 -65 0 -9 336 0 349 10 11 8 13 8 7 -1
-5 -9 -1 -13 13 -13 17 0 19 5 14 37 -3 21 -7 39 -8 41 -4 5 -58 -27 -65 -38
-6 -9 -20 -7 -54 8 -40 18 -46 25 -46 51 0 20 -5 31 -14 31 -8 0 -55 -27 -105
-61z m111 18 c2 -18 0 -44 -4 -58 l-7 -24 1 25 c0 14 0 37 -1 52 l-1 27 -72
-50 c-39 -27 -76 -49 -82 -49 -6 0 9 14 34 30 25 16 61 41 80 54 45 32 47 32
52 -7z m97 -72 c10 -11 -22 -4 -49 10 -28 14 -30 14 -30 -1 0 -10 -3 -15 -6
-11 -4 3 -4 13 0 22 5 14 9 14 43 0 20 -9 39 -18 42 -20z m36 5 c3 -5 1 -10
-4 -10 -6 0 -11 5 -11 10 0 6 2 10 4 10 3 0 8 -4 11 -10z"/>
<path d="M3685 109 c-4 -6 -2 -16 4 -22 6 -6 11 -21 11 -33 0 -38 11 -54 36
-54 30 0 30 0 -1 60 -27 53 -40 66 -50 49z"/>
</g>
</svg>
